<mxfile host="app.diagrams.net" modified="2023-05-08T17:39:35.067Z" agent="Mozilla/5.0 (Windows NT 10.0; Win64; x64) AppleWebKit/537.36 (KHTML, like Gecko) Chrome/113.0.0.0 Safari/537.36 Edg/113.0.1774.35" etag="4_uAKa7hxOMpn-OZ5_iq" version="21.2.9" type="github">
  <diagram name="第 1 页" id="XpywKCpEFBYMZ6CJ2D2Q">
    <mxGraphModel dx="1206" dy="663" grid="0" gridSize="10" guides="1" tooltips="1" connect="1" arrows="1" fold="1" page="1" pageScale="1" pageWidth="2339" pageHeight="3300" math="0" shadow="0">
      <root>
        <mxCell id="0" />
        <mxCell id="1" parent="0" />
        <mxCell id="aqw5U2CSmrbzr4O1C02R-1" value="" style="rounded=1;whiteSpace=wrap;html=1;dashed=1;dashPattern=8 8;" vertex="1" parent="1">
          <mxGeometry x="201" y="120" width="243" height="441" as="geometry" />
        </mxCell>
        <mxCell id="aqw5U2CSmrbzr4O1C02R-5" style="edgeStyle=orthogonalEdgeStyle;rounded=0;orthogonalLoop=1;jettySize=auto;html=1;exitX=0.5;exitY=1;exitDx=0;exitDy=0;" edge="1" parent="1" source="aqw5U2CSmrbzr4O1C02R-2" target="aqw5U2CSmrbzr4O1C02R-3">
          <mxGeometry relative="1" as="geometry" />
        </mxCell>
        <mxCell id="aqw5U2CSmrbzr4O1C02R-2" value="&lt;font style=&quot;font-size: 21px;&quot;&gt;Scan Entity&lt;/font&gt;" style="rounded=1;whiteSpace=wrap;html=1;fillColor=#b1ddf0;strokeColor=#10739e;sketch=1;curveFitting=1;jiggle=2;" vertex="1" parent="1">
          <mxGeometry x="235" y="162" width="175" height="62" as="geometry" />
        </mxCell>
        <mxCell id="aqw5U2CSmrbzr4O1C02R-6" style="edgeStyle=orthogonalEdgeStyle;rounded=0;orthogonalLoop=1;jettySize=auto;html=1;exitX=0.5;exitY=1;exitDx=0;exitDy=0;entryX=0.5;entryY=0;entryDx=0;entryDy=0;" edge="1" parent="1" source="aqw5U2CSmrbzr4O1C02R-3" target="aqw5U2CSmrbzr4O1C02R-4">
          <mxGeometry relative="1" as="geometry" />
        </mxCell>
        <mxCell id="aqw5U2CSmrbzr4O1C02R-3" value="&lt;font style=&quot;font-size: 21px;&quot;&gt;Analysis Table&lt;br&gt;Name Colunm&lt;br&gt;&lt;/font&gt;" style="rounded=1;whiteSpace=wrap;html=1;fillColor=#cdeb8b;strokeColor=#36393d;sketch=1;curveFitting=1;jiggle=2;" vertex="1" parent="1">
          <mxGeometry x="235" y="303" width="175" height="62" as="geometry" />
        </mxCell>
        <mxCell id="aqw5U2CSmrbzr4O1C02R-4" value="&lt;font style=&quot;font-size: 21px;&quot;&gt;Injection Mybatis&lt;br&gt;Container&lt;br&gt;&lt;/font&gt;" style="rounded=1;whiteSpace=wrap;html=1;fillColor=#e1d5e7;strokeColor=#9673a6;sketch=1;curveFitting=1;jiggle=2;" vertex="1" parent="1">
          <mxGeometry x="235" y="449" width="175" height="62" as="geometry" />
        </mxCell>
        <mxCell id="aqw5U2CSmrbzr4O1C02R-7" value="&lt;font style=&quot;font-size: 18px;&quot;&gt;Reflection extraction&lt;/font&gt;" style="text;html=1;strokeColor=none;fillColor=none;align=center;verticalAlign=middle;whiteSpace=wrap;rounded=0;" vertex="1" parent="1">
          <mxGeometry x="231" y="251" width="179" height="34" as="geometry" />
        </mxCell>
        <mxCell id="aqw5U2CSmrbzr4O1C02R-8" value="&lt;font style=&quot;font-size: 18px;&quot;&gt;SQL: Insert&amp;nbsp; &amp;nbsp;UpDate&lt;br&gt;&amp;nbsp; &amp;nbsp; &amp;nbsp; &amp;nbsp; Delete&amp;nbsp; &amp;nbsp;Select&lt;br&gt;&lt;/font&gt;" style="text;html=1;strokeColor=none;fillColor=none;align=center;verticalAlign=middle;whiteSpace=wrap;rounded=0;" vertex="1" parent="1">
          <mxGeometry x="216" y="384" width="179" height="34" as="geometry" />
        </mxCell>
        <mxCell id="aqw5U2CSmrbzr4O1C02R-10" value="" style="rounded=1;whiteSpace=wrap;html=1;dashed=1;dashPattern=12 12;" vertex="1" parent="1">
          <mxGeometry x="557.5" y="313" width="377" height="248" as="geometry" />
        </mxCell>
        <mxCell id="aqw5U2CSmrbzr4O1C02R-11" value="&lt;font style=&quot;font-size: 21px;&quot;&gt;mybatis-plus-boot-starter&lt;/font&gt;" style="rounded=1;whiteSpace=wrap;html=1;fillColor=#cdeb8b;strokeColor=#36393d;sketch=1;curveFitting=1;jiggle=2;" vertex="1" parent="1">
          <mxGeometry x="585.5" y="335" width="321" height="57" as="geometry" />
        </mxCell>
        <mxCell id="aqw5U2CSmrbzr4O1C02R-12" value="&lt;font style=&quot;font-size: 21px;&quot;&gt;annotation&lt;/font&gt;" style="rounded=1;whiteSpace=wrap;html=1;fillColor=#cce5ff;strokeColor=#36393d;sketch=1;curveFitting=1;jiggle=2;" vertex="1" parent="1">
          <mxGeometry x="585.5" y="412" width="144.5" height="57" as="geometry" />
        </mxCell>
        <mxCell id="aqw5U2CSmrbzr4O1C02R-14" value="&lt;font style=&quot;font-size: 21px;&quot;&gt;extension&lt;/font&gt;" style="rounded=1;whiteSpace=wrap;html=1;fillColor=#e1d5e7;strokeColor=#9673a6;sketch=1;curveFitting=1;jiggle=2;" vertex="1" parent="1">
          <mxGeometry x="762" y="412" width="144.5" height="57" as="geometry" />
        </mxCell>
        <mxCell id="aqw5U2CSmrbzr4O1C02R-15" value="&lt;font style=&quot;font-size: 21px;&quot;&gt;core&lt;/font&gt;" style="rounded=1;whiteSpace=wrap;html=1;fillColor=#f8cecc;strokeColor=#b85450;sketch=1;curveFitting=1;jiggle=2;" vertex="1" parent="1">
          <mxGeometry x="585.5" y="481" width="144.5" height="57" as="geometry" />
        </mxCell>
        <mxCell id="aqw5U2CSmrbzr4O1C02R-16" value="&lt;font style=&quot;font-size: 21px;&quot;&gt;generator&lt;/font&gt;" style="rounded=1;whiteSpace=wrap;html=1;fillColor=#ffe6cc;strokeColor=#d79b00;sketch=1;curveFitting=1;jiggle=2;" vertex="1" parent="1">
          <mxGeometry x="762" y="479" width="144.5" height="57" as="geometry" />
        </mxCell>
        <mxCell id="aqw5U2CSmrbzr4O1C02R-17" value="" style="shape=flexArrow;endArrow=classic;html=1;rounded=0;exitX=0;exitY=0.666;exitDx=0;exitDy=0;exitPerimeter=0;entryX=0.992;entryY=0.814;entryDx=0;entryDy=0;entryPerimeter=0;fillColor=#1ba1e2;strokeColor=#006EAF;" edge="1" parent="1" source="aqw5U2CSmrbzr4O1C02R-10" target="aqw5U2CSmrbzr4O1C02R-1">
          <mxGeometry width="50" height="50" relative="1" as="geometry">
            <mxPoint x="483" y="657" as="sourcePoint" />
            <mxPoint x="533" y="607" as="targetPoint" />
          </mxGeometry>
        </mxCell>
        <mxCell id="aqw5U2CSmrbzr4O1C02R-18" value="&lt;font style=&quot;font-size: 28px;&quot;&gt;&lt;b&gt;Mybatis-plus&lt;/b&gt;&lt;/font&gt;" style="text;html=1;strokeColor=none;fillColor=none;align=center;verticalAlign=middle;whiteSpace=wrap;rounded=0;" vertex="1" parent="1">
          <mxGeometry x="631" y="254" width="235" height="49" as="geometry" />
        </mxCell>
      </root>
    </mxGraphModel>
  </diagram>
</mxfile>
